<svg xmlns="http://www.w3.org/2000/svg" viewBox="0 0 1600 1000" preserveAspectRatio="xMidYMid slice">
<defs>
  <linearGradient id="sky" x1="0" y1="0" x2="0" y2="1"><stop offset="0" stop-color="#2f3f6b"/><stop offset="1" stop-color="#e7a987"/></linearGradient>
  <linearGradient id="sea" x1="0" y1="0" x2="0" y2="1"><stop offset="0" stop-color="#000"/><stop offset="1" stop-color="#000"/></linearGradient>
  <filter id="blur" x="-50%" y="-50%" width="200%" height="200%"><feGaussianBlur stdDeviation="30"/></filter>
  <filter id="grain"><feTurbulence type="fractalNoise" baseFrequency="0.9" numOctaves="2" stitchTiles="stitch"/><feColorMatrix values="0 0 0 0 0.5  0 0 0 0 0.5  0 0 0 0 0.5  0 0 0 0.09 0"/></filter>
</defs>
<rect width="1600" height="1000" fill="url(#sky)"/><circle cx="714" cy="524" r="1.43" fill="#fff" opacity="0.72"/><circle cx="100" cy="133" r="1.11" fill="#fff" opacity="0.43"/><circle cx="815" cy="50" r="1.25" fill="#fff" opacity="0.47"/><circle cx="546" cy="28" r="1.33" fill="#fff" opacity="0.51"/><circle cx="475" cy="47" r="0.56" fill="#fff" opacity="0.30"/><circle cx="534" cy="511" r="0.44" fill="#fff" opacity="0.79"/><circle cx="670" cy="412" r="0.68" fill="#fff" opacity="0.28"/><circle cx="302" cy="15" r="1.47" fill="#fff" opacity="0.65"/><circle cx="661" cy="19" r="0.84" fill="#fff" opacity="0.86"/><circle cx="1069" cy="121" r="1.45" fill="#fff" opacity="0.61"/><circle cx="614" cy="598" r="1.03" fill="#fff" opacity="0.64"/><circle cx="1425" cy="288" r="0.76" fill="#fff" opacity="0.73"/><circle cx="305" cy="577" r="1.48" fill="#fff" opacity="0.37"/><circle cx="508" cy="246" r="0.94" fill="#fff" opacity="0.89"/><circle cx="724" cy="227" r="0.43" fill="#fff" opacity="0.24"/><circle cx="1037" cy="408" r="1.03" fill="#fff" opacity="0.46"/><circle cx="221" cy="220" r="0.39" fill="#fff" opacity="0.55"/><circle cx="1304" cy="110" r="1.61" fill="#fff" opacity="0.68"/><circle cx="970" cy="36" r="0.98" fill="#fff" opacity="0.67"/><circle cx="1209" cy="497" r="0.59" fill="#fff" opacity="0.37"/><circle cx="432" cy="262" r="0.86" fill="#fff" opacity="0.77"/><circle cx="1474" cy="106" r="1.73" fill="#fff" opacity="0.83"/><circle cx="364" cy="437" r="0.36" fill="#fff" opacity="0.44"/><circle cx="1200" cy="449" r="1.34" fill="#fff" opacity="0.79"/><circle cx="165" cy="141" r="1.19" fill="#fff" opacity="0.72"/><circle cx="943" cy="449" r="1.57" fill="#fff" opacity="0.66"/><circle cx="74" cy="20" r="1.27" fill="#fff" opacity="0.44"/><circle cx="1275" cy="523" r="1.15" fill="#fff" opacity="0.26"/><circle cx="386" cy="22" r="0.47" fill="#fff" opacity="0.22"/><circle cx="1056" cy="508" r="0.32" fill="#fff" opacity="0.31"/><circle cx="1577" cy="459" r="0.93" fill="#fff" opacity="0.31"/><circle cx="1352" cy="454" r="1.86" fill="#fff" opacity="0.49"/><circle cx="420" cy="395" r="0.52" fill="#fff" opacity="0.61"/><circle cx="867" cy="587" r="1.83" fill="#fff" opacity="0.63"/><circle cx="1149" cy="195" r="0.85" fill="#fff" opacity="0.38"/><circle cx="1509" cy="284" r="0.56" fill="#fff" opacity="0.83"/><circle cx="1249" cy="82" r="0.68" fill="#fff" opacity="0.44"/><circle cx="44" cy="260" r="0.80" fill="#fff" opacity="0.48"/><circle cx="1465" cy="185" r="0.67" fill="#fff" opacity="0.72"/><circle cx="605" cy="534" r="1.66" fill="#fff" opacity="0.82"/><circle cx="1522" cy="46" r="1.64" fill="#fff" opacity="0.62"/><circle cx="104" cy="252" r="0.95" fill="#fff" opacity="0.72"/><circle cx="341" cy="331" r="0.88" fill="#fff" opacity="0.45"/><circle cx="638" cy="566" r="1.72" fill="#fff" opacity="0.48"/><circle cx="1535" cy="320" r="1.65" fill="#fff" opacity="0.67"/><circle cx="1515" cy="247" r="0.44" fill="#fff" opacity="0.55"/><circle cx="777" cy="241" r="1.07" fill="#fff" opacity="0.46"/><circle cx="164" cy="500" r="0.39" fill="#fff" opacity="0.44"/><circle cx="915" cy="92" r="0.44" fill="#fff" opacity="0.79"/><circle cx="597" cy="317" r="0.48" fill="#fff" opacity="0.27"/><circle cx="452" cy="94" r="0.78" fill="#fff" opacity="0.75"/><circle cx="32" cy="94" r="0.61" fill="#fff" opacity="0.47"/><circle cx="1175" cy="438" r="0.92" fill="#fff" opacity="0.89"/><circle cx="124" cy="498" r="1.37" fill="#fff" opacity="0.87"/><circle cx="342" cy="126" r="1.78" fill="#fff" opacity="0.60"/><circle cx="943" cy="88" r="1.44" fill="#fff" opacity="0.87"/><circle cx="388" cy="319" r="1.03" fill="#fff" opacity="0.61"/><circle cx="566" cy="22" r="1.25" fill="#fff" opacity="0.55"/><circle cx="61" cy="538" r="1.01" fill="#fff" opacity="0.36"/><circle cx="1048" cy="499" r="1.23" fill="#fff" opacity="0.80"/><path d="M0,1000 L0.0,474.0 L25.0,474.4 L50.0,468.9 L75.0,467.7 L100.0,468.4 L125.0,465.6 L150.0,462.9 L175.0,460.4 L200.0,457.2 L225.0,452.5 L250.0,447.5 L275.0,437.9 L300.0,426.0 L325.0,400.6 L350.0,363.2 L375.0,324.8 L400.0,289.9 L425.0,249.7 L450.0,224.3 L475.0,217.3 L500.0,224.9 L525.0,245.2 L550.0,280.9 L575.0,314.7 L600.0,353.0 L625.0,391.5 L650.0,421.3 L675.0,447.4 L700.0,464.3 L725.0,477.6 L750.0,487.7 L775.0,492.1 L800.0,489.4 L825.0,495.0 L850.0,495.1 L875.0,496.4 L900.0,495.4 L925.0,489.9 L950.0,483.5 L975.0,469.2 L1000.0,453.4 L1025.0,433.5 L1050.0,411.6 L1075.0,390.6 L1100.0,375.6 L1125.0,359.4 L1150.0,354.0 L1175.0,359.0 L1200.0,376.2 L1225.0,397.6 L1250.0,427.0 L1275.0,459.0 L1300.0,484.9 L1325.0,508.9 L1350.0,524.9 L1375.0,538.4 L1400.0,553.1 L1425.0,563.8 L1450.0,571.9 L1475.0,574.6 L1500.0,576.1 L1525.0,579.0 L1550.0,578.3 L1575.0,577.9 L1600.0,571.6 L1600,1000 Z" fill="#5a5f86"/><path d="M0.0,474.0 L25.0,474.4 L50.0,468.9 L75.0,467.7 L100.0,468.4 L125.0,465.6 L150.0,462.9 L175.0,460.4 L200.0,457.2 L225.0,452.5 L250.0,447.5 L275.0,437.9 L300.0,426.0 L325.0,400.6 L350.0,363.2 L375.0,324.8 L400.0,289.9 L425.0,249.7 L450.0,224.3 L475.0,217.3 L500.0,224.9 L525.0,245.2 L550.0,280.9 L575.0,314.7 L600.0,353.0 L625.0,391.5 L650.0,421.3 L675.0,447.4 L700.0,464.3 L725.0,477.6 L750.0,487.7 L775.0,492.1 L800.0,489.4 L825.0,495.0 L850.0,495.1 L875.0,496.4 L900.0,495.4 L925.0,489.9 L950.0,483.5 L975.0,469.2 L1000.0,453.4 L1025.0,433.5 L1050.0,411.6 L1075.0,390.6 L1100.0,375.6 L1125.0,359.4 L1150.0,354.0 L1175.0,359.0 L1200.0,376.2 L1225.0,397.6 L1250.0,427.0 L1275.0,459.0 L1300.0,484.9 L1325.0,508.9 L1350.0,524.9 L1375.0,538.4 L1400.0,553.1 L1425.0,563.8 L1450.0,571.9 L1475.0,574.6 L1500.0,576.1 L1525.0,579.0 L1550.0,578.3 L1575.0,577.9 L1600.0,571.6 L1600.0,673.6 L1575.0,686.3 L1550.0,688.2 L1525.0,685.4 L1500.0,674.1 L1475.0,660.1 L1450.0,641.8 L1425.0,616.0 L1400.0,607.1 L1375.0,609.9 L1350.0,611.9 L1325.0,607.9 L1300.0,591.8 L1275.0,569.0 L1250.0,535.0 L1225.0,498.7 L1200.0,466.0 L1175.0,434.0 L1150.0,411.9 L1125.0,407.8 L1100.0,441.9 L1075.0,473.1 L1050.0,507.3 L1025.0,538.5 L1000.0,563.0 L975.0,578.4 L950.0,587.2 L925.0,583.6 L900.0,575.3 L875.0,559.7 L850.0,540.4 L825.0,555.8 L800.0,567.1 L775.0,584.1 L750.0,590.2 L725.0,586.3 L700.0,574.1 L675.0,553.3 L650.0,518.6 L625.0,476.0 L600.0,421.7 L575.0,365.6 L550.0,336.2 L525.0,317.9 L500.0,312.8 L475.0,317.0 L450.0,331.6 L425.0,359.7 L400.0,397.5 L375.0,425.2 L350.0,452.1 L325.0,474.4 L300.0,482.5 L275.0,487.6 L250.0,515.0 L225.0,536.0 L200.0,553.7 L175.0,565.8 L150.0,572.6 L125.0,574.5 L100.0,571.5 L75.0,560.6 L50.0,547.8 L25.0,536.5 L0.0,518.0 Z" fill="#f3e7e7" opacity="0.95"/><path d="M0,1000 L0.0,593.1 L25.0,590.2 L50.0,584.2 L75.0,583.2 L100.0,575.7 L125.0,569.1 L150.0,565.0 L175.0,555.2 L200.0,552.4 L225.0,552.6 L250.0,554.2 L275.0,560.3 L300.0,562.7 L325.0,562.2 L350.0,562.9 L375.0,558.9 L400.0,553.2 L425.0,557.1 L450.0,558.4 L475.0,557.3 L500.0,560.1 L525.0,560.1 L550.0,553.9 L575.0,545.8 L600.0,539.7 L625.0,533.6 L650.0,528.0 L675.0,514.0 L700.0,501.7 L725.0,488.8 L750.0,480.5 L775.0,473.5 L800.0,464.2 L825.0,460.5 L850.0,463.4 L875.0,469.0 L900.0,476.1 L925.0,487.9 L950.0,503.8 L975.0,515.3 L1000.0,534.2 L1025.0,543.4 L1050.0,558.9 L1075.0,568.5 L1100.0,581.5 L1125.0,589.9 L1150.0,602.8 L1175.0,609.5 L1200.0,620.9 L1225.0,627.5 L1250.0,627.3 L1275.0,634.4 L1300.0,635.3 L1325.0,646.4 L1350.0,650.5 L1375.0,655.5 L1400.0,666.2 L1425.0,667.4 L1450.0,670.6 L1475.0,672.2 L1500.0,667.1 L1525.0,664.1 L1550.0,661.5 L1575.0,666.8 L1600.0,668.0 L1600,1000 Z" fill="#3a3d5c"/><path d="M0.0,593.1 L25.0,590.2 L50.0,584.2 L75.0,583.2 L100.0,575.7 L125.0,569.1 L150.0,565.0 L175.0,555.2 L200.0,552.4 L225.0,552.6 L250.0,554.2 L275.0,560.3 L300.0,562.7 L325.0,562.2 L350.0,562.9 L375.0,558.9 L400.0,553.2 L425.0,557.1 L450.0,558.4 L475.0,557.3 L500.0,560.1 L525.0,560.1 L550.0,553.9 L575.0,545.8 L600.0,539.7 L625.0,533.6 L650.0,528.0 L675.0,514.0 L700.0,501.7 L725.0,488.8 L750.0,480.5 L775.0,473.5 L800.0,464.2 L825.0,460.5 L850.0,463.4 L875.0,469.0 L900.0,476.1 L925.0,487.9 L950.0,503.8 L975.0,515.3 L1000.0,534.2 L1025.0,543.4 L1050.0,558.9 L1075.0,568.5 L1100.0,581.5 L1125.0,589.9 L1150.0,602.8 L1175.0,609.5 L1200.0,620.9 L1225.0,627.5 L1250.0,627.3 L1275.0,634.4 L1300.0,635.3 L1325.0,646.4 L1350.0,650.5 L1375.0,655.5 L1400.0,666.2 L1425.0,667.4 L1450.0,670.6 L1475.0,672.2 L1500.0,667.1 L1525.0,664.1 L1550.0,661.5 L1575.0,666.8 L1600.0,668.0 L1600.0,705.0 L1575.0,706.2 L1550.0,701.4 L1525.0,702.8 L1500.0,702.8 L1475.0,703.4 L1450.0,696.1 L1425.0,686.4 L1400.0,685.9 L1375.0,681.5 L1350.0,682.1 L1325.0,682.4 L1300.0,674.2 L1275.0,674.4 L1250.0,666.6 L1225.0,664.2 L1200.0,653.5 L1175.0,636.8 L1150.0,623.8 L1125.0,607.5 L1100.0,605.6 L1075.0,598.5 L1050.0,593.7 L1025.0,581.6 L1000.0,574.1 L975.0,555.0 L950.0,541.5 L925.0,522.0 L900.0,505.1 L875.0,492.0 L850.0,479.9 L825.0,482.6 L800.0,492.5 L775.0,507.0 L750.0,517.8 L725.0,528.3 L700.0,541.6 L675.0,552.5 L650.0,563.4 L625.0,564.3 L600.0,564.7 L575.0,564.3 L550.0,574.0 L525.0,586.6 L500.0,592.1 L475.0,593.5 L450.0,597.4 L425.0,597.1 L400.0,592.4 L375.0,595.5 L350.0,595.2 L325.0,589.1 L300.0,583.2 L275.0,578.3 L250.0,578.7 L225.0,583.0 L200.0,587.5 L175.0,593.6 L150.0,604.9 L125.0,608.7 L100.0,613.2 L75.0,617.0 L50.0,612.8 L25.0,612.8 L0.0,609.1 Z" fill="#d9cfd6" opacity="0.7"/><path d="M0,1000 L0.0,813.6 L25.0,811.8 L50.0,808.5 L75.0,808.9 L100.0,806.7 L125.0,804.0 L150.0,802.8 L175.0,802.3 L200.0,798.9 L225.0,800.0 L250.0,801.8 L275.0,802.0 L300.0,801.3 L325.0,799.8 L350.0,797.7 L375.0,797.0 L400.0,797.7 L425.0,797.1 L450.0,794.7 L475.0,791.4 L500.0,787.6 L525.0,788.0 L550.0,786.6 L575.0,783.9 L600.0,780.1 L625.0,777.5 L650.0,776.7 L675.0,774.6 L700.0,772.8 L725.0,771.5 L750.0,769.8 L775.0,770.8 L800.0,770.9 L825.0,771.5 L850.0,774.8 L875.0,775.5 L900.0,775.8 L925.0,775.7 L950.0,775.4 L975.0,777.4 L1000.0,779.4 L1025.0,778.6 L1050.0,780.7 L1075.0,782.0 L1100.0,780.9 L1125.0,782.8 L1150.0,787.0 L1175.0,788.6 L1200.0,788.7 L1225.0,787.2 L1250.0,787.8 L1275.0,785.1 L1300.0,784.8 L1325.0,782.6 L1350.0,781.9 L1375.0,782.3 L1400.0,782.3 L1425.0,779.9 L1450.0,780.5 L1475.0,779.0 L1500.0,774.6 L1525.0,772.3 L1550.0,773.0 L1575.0,774.5 L1600.0,774.7 L1600,1000 Z" fill="#26283d"/><g fill="#15161f">
      <polygon points="1050,790 1076.4,754.8 1102.8,790"/><polygon points="1116,790 1142.4,754.8 1168.8,790"/><polygon points="1182,790 1208.4,754.8 1234.8,790"/>
      <rect x="1259" y="724" width="2.2" height="66"/>
      <polygon points="1261.2,724 1294.2,732.8 1261.2,741.6"/>
    </g>
<rect width="1600" height="1000" filter="url(#grain)"/>
</svg>