<svg xmlns="http://www.w3.org/2000/svg" viewBox="0 0 1600 1000" preserveAspectRatio="xMidYMid slice">
<defs>
  <linearGradient id="sky" x1="0" y1="0" x2="0" y2="1"><stop offset="0" stop-color="#6f8fae"/><stop offset="1" stop-color="#dfe7ee"/></linearGradient>
  <linearGradient id="sea" x1="0" y1="0" x2="0" y2="1"><stop offset="0" stop-color="#355572"/><stop offset="1" stop-color="#1a2e44"/></linearGradient>
  <filter id="blur" x="-50%" y="-50%" width="200%" height="200%"><feGaussianBlur stdDeviation="30"/></filter>
  <filter id="grain"><feTurbulence type="fractalNoise" baseFrequency="0.9" numOctaves="2" stitchTiles="stitch"/><feColorMatrix values="0 0 0 0 0.5  0 0 0 0 0.5  0 0 0 0 0.5  0 0 0 0.09 0"/></filter>
</defs>
<rect width="1600" height="1000" fill="url(#sky)"/><circle cx="400" cy="220" r="78" fill="#fff" opacity="0.18" filter="url(#blur)"/><circle cx="400" cy="220" r="26" fill="#fff"/><path d="M0,1000 L0.0,573.5 L25.0,572.1 L50.0,571.1 L75.0,569.5 L100.0,568.6 L125.0,568.0 L150.0,565.8 L175.0,566.1 L200.0,566.5 L225.0,565.4 L250.0,564.4 L275.0,563.9 L300.0,564.3 L325.0,563.7 L350.0,564.2 L375.0,565.0 L400.0,567.1 L425.0,569.3 L450.0,570.3 L475.0,570.9 L500.0,570.0 L525.0,568.3 L550.0,567.0 L575.0,566.4 L600.0,567.0 L625.0,566.0 L650.0,565.7 L675.0,566.3 L700.0,566.0 L725.0,567.5 L750.0,567.5 L775.0,567.5 L800.0,566.4 L825.0,564.9 L850.0,563.6 L875.0,565.0 L900.0,564.6 L925.0,565.0 L950.0,565.9 L975.0,564.9 L1000.0,563.6 L1025.0,563.9 L1050.0,565.1 L1075.0,564.9 L1100.0,565.5 L1125.0,565.6 L1150.0,563.8 L1175.0,563.3 L1200.0,564.1 L1225.0,565.5 L1250.0,565.1 L1275.0,563.6 L1300.0,564.0 L1325.0,564.7 L1350.0,564.0 L1375.0,562.4 L1400.0,562.4 L1425.0,562.8 L1450.0,563.2 L1475.0,564.8 L1500.0,564.7 L1525.0,566.7 L1550.0,567.6 L1575.0,567.8 L1600.0,567.4 L1600,1000 Z" fill="#a9bccb"/><rect x="0" y="600" width="1600" height="400" fill="url(#sea)"/><rect x="373" y="614" width="38" height="1.5" fill="#fff" opacity="0.14"/><rect x="264" y="812" width="97" height="1.5" fill="#fff" opacity="0.20"/><rect x="113" y="951" width="35" height="1.5" fill="#fff" opacity="0.23"/><rect x="129" y="912" width="58" height="1.5" fill="#fff" opacity="0.17"/><rect x="1277" y="888" width="81" height="1.5" fill="#fff" opacity="0.10"/><rect x="968" y="755" width="77" height="1.5" fill="#fff" opacity="0.29"/><rect x="1314" y="972" width="87" height="1.5" fill="#fff" opacity="0.29"/><rect x="159" y="678" width="95" height="1.5" fill="#fff" opacity="0.23"/><rect x="925" y="628" width="66" height="1.5" fill="#fff" opacity="0.15"/><rect x="393" y="778" width="87" height="1.5" fill="#fff" opacity="0.19"/><rect x="611" y="689" width="89" height="1.5" fill="#fff" opacity="0.26"/><rect x="1408" y="941" width="40" height="1.5" fill="#fff" opacity="0.26"/><rect x="980" y="989" width="55" height="1.5" fill="#fff" opacity="0.13"/><rect x="644" y="746" width="45" height="1.5" fill="#fff" opacity="0.21"/><rect x="592" y="964" width="119" height="1.5" fill="#fff" opacity="0.13"/><rect x="1036" y="874" width="44" height="1.5" fill="#fff" opacity="0.11"/><rect x="1117" y="982" width="79" height="1.5" fill="#fff" opacity="0.26"/><rect x="891" y="936" width="68" height="1.5" fill="#fff" opacity="0.13"/><rect x="1521" y="985" width="36" height="1.5" fill="#fff" opacity="0.15"/><rect x="1142" y="793" width="122" height="1.5" fill="#fff" opacity="0.26"/><rect x="116" y="742" width="126" height="1.5" fill="#fff" opacity="0.23"/><rect x="834" y="654" width="76" height="1.5" fill="#fff" opacity="0.13"/><rect x="1503" y="980" width="73" height="1.5" fill="#fff" opacity="0.20"/><rect x="544" y="907" width="22" height="1.5" fill="#fff" opacity="0.26"/><rect x="495" y="663" width="128" height="1.5" fill="#fff" opacity="0.20"/><rect x="424" y="715" width="114" height="1.5" fill="#fff" opacity="0.17"/><rect x="371" y="716" width="65" height="1.5" fill="#fff" opacity="0.15"/><rect x="974" y="855" width="79" height="1.5" fill="#fff" opacity="0.14"/><rect x="198" y="660" width="107" height="1.5" fill="#fff" opacity="0.25"/><rect x="420" y="992" width="137" height="1.5" fill="#fff" opacity="0.27"/><rect x="415" y="911" width="57" height="1.5" fill="#fff" opacity="0.24"/><rect x="350" y="779" width="132" height="1.5" fill="#fff" opacity="0.29"/><rect x="609" y="978" width="84" height="1.5" fill="#fff" opacity="0.11"/><rect x="1484" y="922" width="117" height="1.5" fill="#fff" opacity="0.21"/><rect x="930" y="958" width="39" height="1.5" fill="#fff" opacity="0.29"/><rect x="1220" y="643" width="82" height="1.5" fill="#fff" opacity="0.12"/><rect x="297" y="649" width="80" height="1.5" fill="#fff" opacity="0.20"/><rect x="429" y="869" width="95" height="1.5" fill="#fff" opacity="0.30"/><rect x="308" y="654" width="68" height="1.5" fill="#fff" opacity="0.21"/><rect x="1070" y="689" width="35" height="1.5" fill="#fff" opacity="0.30"/><ellipse cx="733" cy="714" rx="47" ry="6" fill="#f2f6f9" opacity="0.88"/><ellipse cx="808" cy="930" rx="51" ry="10" fill="#f2f6f9" opacity="0.94"/><ellipse cx="578" cy="971" rx="121" ry="21" fill="#f2f6f9" opacity="0.88"/><ellipse cx="192" cy="860" rx="85" ry="13" fill="#f2f6f9" opacity="0.79"/><ellipse cx="846" cy="840" rx="34" ry="6" fill="#f2f6f9" opacity="0.88"/><ellipse cx="106" cy="865" rx="51" ry="7" fill="#f2f6f9" opacity="0.94"/><ellipse cx="1158" cy="913" rx="44" ry="7" fill="#f2f6f9" opacity="0.91"/><ellipse cx="266" cy="630" rx="25" ry="5" fill="#f2f6f9" opacity="0.85"/><ellipse cx="713" cy="752" rx="88" ry="17" fill="#f2f6f9" opacity="0.96"/><ellipse cx="79" cy="778" rx="26" ry="4" fill="#f2f6f9" opacity="0.89"/><ellipse cx="1078" cy="625" rx="43" ry="6" fill="#f2f6f9" opacity="0.78"/><ellipse cx="342" cy="817" rx="103" ry="17" fill="#f2f6f9" opacity="0.99"/><ellipse cx="1007" cy="795" rx="82" ry="11" fill="#f2f6f9" opacity="0.95"/><ellipse cx="437" cy="847" rx="33" ry="5" fill="#f2f6f9" opacity="0.72"/><ellipse cx="13" cy="734" rx="48" ry="9" fill="#f2f6f9" opacity="0.88"/><ellipse cx="1163" cy="832" rx="78" ry="12" fill="#f2f6f9" opacity="0.88"/><ellipse cx="283" cy="844" rx="57" ry="7" fill="#f2f6f9" opacity="0.81"/><ellipse cx="1134" cy="860" rx="113" ry="18" fill="#f2f6f9" opacity="0.93"/><ellipse cx="611" cy="753" rx="93" ry="18" fill="#f2f6f9" opacity="0.96"/><ellipse cx="658" cy="867" rx="65" ry="12" fill="#f2f6f9" opacity="0.85"/><ellipse cx="1363" cy="894" rx="25" ry="4" fill="#f2f6f9" opacity="0.85"/><ellipse cx="566" cy="774" rx="85" ry="13" fill="#f2f6f9" opacity="0.81"/><ellipse cx="565" cy="636" rx="33" ry="4" fill="#f2f6f9" opacity="0.85"/><ellipse cx="70" cy="781" rx="55" ry="8" fill="#f2f6f9" opacity="0.75"/><ellipse cx="401" cy="692" rx="61" ry="11" fill="#f2f6f9" opacity="0.92"/><ellipse cx="1036" cy="753" rx="88" ry="13" fill="#f2f6f9" opacity="0.90"/><ellipse cx="710" cy="827" rx="84" ry="13" fill="#f2f6f9" opacity="0.70"/><ellipse cx="1090" cy="780" rx="93" ry="14" fill="#f2f6f9" opacity="0.92"/><ellipse cx="644" cy="610" rx="31" ry="6" fill="#f2f6f9" opacity="0.84"/><ellipse cx="492" cy="881" rx="28" ry="4" fill="#f2f6f9" opacity="0.72"/><ellipse cx="196" cy="654" rx="42" ry="7" fill="#f2f6f9" opacity="0.71"/><ellipse cx="1432" cy="630" rx="62" ry="11" fill="#f2f6f9" opacity="0.82"/><ellipse cx="959" cy="782" rx="25" ry="5" fill="#f2f6f9" opacity="0.87"/><ellipse cx="569" cy="997" rx="61" ry="12" fill="#f2f6f9" opacity="0.88"/><ellipse cx="1449" cy="769" rx="34" ry="7" fill="#f2f6f9" opacity="0.76"/><ellipse cx="1279" cy="947" rx="150" ry="25" fill="#f2f6f9" opacity="0.83"/><ellipse cx="1165" cy="856" rx="62" ry="10" fill="#f2f6f9" opacity="0.94"/><ellipse cx="1538" cy="861" rx="37" ry="5" fill="#f2f6f9" opacity="0.74"/><ellipse cx="1530" cy="985" rx="87" ry="17" fill="#f2f6f9" opacity="0.77"/><ellipse cx="149" cy="794" rx="26" ry="4" fill="#f2f6f9" opacity="0.84"/><ellipse cx="1528" cy="768" rx="98" ry="18" fill="#f2f6f9" opacity="0.92"/><ellipse cx="1077" cy="665" rx="73" ry="10" fill="#f2f6f9" opacity="0.81"/><ellipse cx="824" cy="816" rx="46" ry="8" fill="#f2f6f9" opacity="0.93"/><ellipse cx="914" cy="885" rx="101" ry="18" fill="#f2f6f9" opacity="0.93"/><ellipse cx="1209" cy="773" rx="71" ry="11" fill="#f2f6f9" opacity="0.99"/><ellipse cx="934" cy="971" rx="33" ry="5" fill="#f2f6f9" opacity="0.75"/><ellipse cx="1233" cy="798" rx="92" ry="13" fill="#f2f6f9" opacity="0.98"/><ellipse cx="992" cy="688" rx="65" ry="11" fill="#f2f6f9" opacity="0.87"/><ellipse cx="1105" cy="625" rx="46" ry="8" fill="#f2f6f9" opacity="0.73"/><ellipse cx="1020" cy="639" rx="55" ry="7" fill="#f2f6f9" opacity="0.82"/><ellipse cx="482" cy="881" rx="86" ry="17" fill="#f2f6f9" opacity="0.82"/><ellipse cx="1137" cy="891" rx="130" ry="22" fill="#f2f6f9" opacity="0.90"/><ellipse cx="1597" cy="800" rx="21" ry="4" fill="#f2f6f9" opacity="0.84"/><ellipse cx="832" cy="634" rx="28" ry="4" fill="#f2f6f9" opacity="0.99"/><ellipse cx="229" cy="642" rx="33" ry="7" fill="#f2f6f9" opacity="0.73"/><ellipse cx="9" cy="651" rx="45" ry="5" fill="#f2f6f9" opacity="0.84"/><ellipse cx="523" cy="938" rx="81" ry="11" fill="#f2f6f9" opacity="0.99"/><ellipse cx="1110" cy="773" rx="61" ry="10" fill="#f2f6f9" opacity="0.85"/><ellipse cx="471" cy="654" rx="22" ry="3" fill="#f2f6f9" opacity="0.94"/><ellipse cx="838" cy="943" rx="134" ry="24" fill="#f2f6f9" opacity="0.99"/><ellipse cx="943" cy="925" rx="73" ry="9" fill="#f2f6f9" opacity="0.79"/><ellipse cx="36" cy="644" rx="32" ry="6" fill="#f2f6f9" opacity="0.78"/><ellipse cx="983" cy="997" rx="51" ry="9" fill="#f2f6f9" opacity="0.88"/><ellipse cx="189" cy="742" rx="62" ry="10" fill="#f2f6f9" opacity="0.73"/><ellipse cx="1473" cy="775" rx="92" ry="12" fill="#f2f6f9" opacity="0.94"/><ellipse cx="1510" cy="872" rx="53" ry="7" fill="#f2f6f9" opacity="0.79"/><ellipse cx="995" cy="963" rx="61" ry="12" fill="#f2f6f9" opacity="0.81"/><ellipse cx="59" cy="787" rx="84" ry="15" fill="#f2f6f9" opacity="0.71"/><ellipse cx="362" cy="711" rx="26" ry="4" fill="#f2f6f9" opacity="0.80"/><ellipse cx="1295" cy="925" rx="31" ry="5" fill="#f2f6f9" opacity="0.86"/><ellipse cx="1577" cy="838" rx="88" ry="15" fill="#f2f6f9" opacity="0.79"/><ellipse cx="1298" cy="680" rx="66" ry="9" fill="#f2f6f9" opacity="0.75"/><ellipse cx="1079" cy="611" rx="47" ry="6" fill="#f2f6f9" opacity="0.80"/><ellipse cx="1026" cy="892" rx="60" ry="12" fill="#f2f6f9" opacity="0.91"/><ellipse cx="123" cy="798" rx="68" ry="12" fill="#f2f6f9" opacity="0.86"/><ellipse cx="920" cy="831" rx="110" ry="22" fill="#f2f6f9" opacity="0.79"/><ellipse cx="975" cy="807" rx="79" ry="11" fill="#f2f6f9" opacity="0.78"/><ellipse cx="102" cy="896" rx="50" ry="9" fill="#f2f6f9" opacity="0.99"/><ellipse cx="1102" cy="907" rx="25" ry="3" fill="#f2f6f9" opacity="0.74"/><ellipse cx="541" cy="746" rx="42" ry="6" fill="#f2f6f9" opacity="0.90"/><ellipse cx="147" cy="970" rx="156" ry="24" fill="#f2f6f9" opacity="0.72"/><ellipse cx="679" cy="714" rx="54" ry="9" fill="#f2f6f9" opacity="0.97"/><ellipse cx="954" cy="823" rx="98" ry="14" fill="#f2f6f9" opacity="0.84"/><ellipse cx="911" cy="976" rx="127" ry="17" fill="#f2f6f9" opacity="0.96"/><ellipse cx="963" cy="990" rx="31" ry="6" fill="#f2f6f9" opacity="0.71"/><ellipse cx="406" cy="713" rx="77" ry="15" fill="#f2f6f9" opacity="0.78"/><ellipse cx="1164" cy="679" rx="23" ry="5" fill="#f2f6f9" opacity="0.78"/><ellipse cx="1295" cy="726" rx="92" ry="15" fill="#f2f6f9" opacity="0.82"/><ellipse cx="678" cy="728" rx="39" ry="7" fill="#f2f6f9" opacity="0.83"/><ellipse cx="1002" cy="926" rx="108" ry="16" fill="#f2f6f9" opacity="0.76"/><g fill="#b13b2e">
    <polygon points="900,640 1264,640 1236,679.2 928,679.2"/>
    <rect x="1110" y="572.8" width="98" height="67.19999999999999"/>
    <rect x="1138" y="542" width="42" height="30.799999999999997"/>
    <rect x="984" y="514" width="5.6" height="125.99999999999999"/>
    <line x1="986.8" y1="516.8" x2="1096" y2="626" stroke="#b13b2e" stroke-width="2.8"/>
  </g>
<rect width="1600" height="1000" filter="url(#grain)"/>
</svg>